inDegrees=yes
name=ik_S54_A06_T02
DataType=double
version=3
OpenSimVersion=4.3-2021-08-27-4bc7ad9
endheader
time	pelvis_tilt	pelvis_list	pelvis_rotation	pelvis_tx	pelvis_ty	pelvis_tz	hip_flexion_r	hip_adduction_r	hip_rotation_r	knee_angle_r	knee_angle_r_beta	ankle_angle_r	subtalar_angle_r	mtp_angle_r	hip_flexion_l	hip_adduction_l	hip_rotation_l	knee_angle_l	knee_angle_l_beta	ankle_angle_l	subtalar_angle_l	mtp_angle_l	lumbar_extension	lumbar_bending	lumbar_rotation	arm_flex_r	arm_add_r	arm_rot_r	elbow_flex_r	pro_sup_r	wrist_flex_r	wrist_dev_r	arm_flex_l	arm_add_l	arm_rot_l	elbow_flex_l	pro_sup_l	wrist_flex_l	wrist_dev_l
22.51999999999961	-8.638058141304899	-0.005866257440947046	15.8209010124758	0	0.9399999999999999	0	36.31245357015258	-10.48164775681638	-9.849584914956035	44.92732690884522	0.7841297786791954	0	0	0	36.31245357015258	-10.48164775681638	-9.849584914956035	44.92732690884522	0.7841297786791954	0	0	0	-6.416421425016535	-0.3618764030515543	-2.539967567117333	37.6388189131953	4.185811165559574	5.674174772048357	45.38915963994056	137.8562146673564	0	0	72.17114115033662	-14.24506380908802	15.00488241965612	36.24822661643407	106.3327294094841	0	0
22.53999999999961	-8.61475689163127	-0.01970936003061732	16.01792629099029	0	0.9399999999999999	0	36.31512353841841	-10.48113735162002	-9.849687134129885	44.92942133747714	0.7841663333547705	0	0	0	36.31512353841841	-10.48113735162002	-9.849687134129885	44.92942133747714	0.7841663333547705	0	0	0	-6.398382394585893	-0.3678229767659334	-2.657768735699543	37.62191911854408	4.173595273972604	5.58669968028534	45.36331653610053	137.874733487673	0	0	71.79553799269897	-15.47948152909588	14.44050421829989	36.87840313167324	106.2011791401084	0	0
22.55999999999961	-8.580305687286668	-0.02114189682864538	16.25487591475547	0	0.9399999999999999	0	36.31835701855131	-10.48051913383104	-9.849810956064047	44.93195572337888	0.7842105667332718	0	0	0	36.31835701855131	-10.48051913383104	-9.849810956064047	44.93195572337888	0.7842105667332718	0	0	0	-6.366326881447777	-0.3669045097697671	-2.758257329524454	37.5759710395638	4.106578220431539	5.448238605161782	45.32761533055088	137.8945624711682	0	0	71.33905889003482	-16.73678767553019	13.84340934902629	37.56528447418543	105.9980368737739	0	0
22.57999999999961	-8.55136695783502	-0.02914255254003223	16.50578056989525	0	0.9399999999999999	0	36.32197156259772	-10.47982836111813	-9.849949353048833	44.93478771138945	0.7842599942484333	0	0	0	36.32197156259772	-10.47982836111813	-9.849949353048833	44.93478771138945	0.7842599942484333	0	0	0	-6.341691246337483	-0.3713362339859481	-2.85306865440828	37.52763402935216	4.020879026890347	5.287879524335342	45.32317373257645	137.8840516125197	0	0	70.94138715875125	-18.01306007261014	13.25168534536824	38.13082509637959	105.6934434787033	0	0
22.59999999999961	-8.530777898119149	-0.03682690278300786	16.72035470284043	0	0.9399999999999999	0	36.32534436598554	-10.47918459445692	-9.850078409130388	44.93743132126694	0.7843061339449339	0	0	0	36.32534436598554	-10.47918459445692	-9.850078409130388	44.93743132126694	0.7843061339449339	0	0	0	-6.325031052045321	-0.3684303334253645	-2.989994447747179	37.48387154392254	3.962914939517365	5.250865425136633	45.31858530418569	137.8902086663925	0	0	70.52457431178242	-19.41326320815185	12.60248622736058	38.61013726901837	105.3654926820112	0	0
22.61999999999961	-8.50557489527413	-0.05350288951609233	16.98173391777186	0	0.9399999999999999	0	36.32833787673302	-10.47861387268359	-9.850192883724709	44.93977846484317	0.784347099328356	0	0	0	36.32833787673302	-10.47861387268359	-9.850192883724709	44.93977846484317	0.784347099328356	0	0	0	-6.306509251706422	-0.3806534335006703	-3.084190325351466	37.45892139620824	3.904433427252211	5.136695218813895	45.34254299792381	137.8637776658279	0	0	70.08699500978538	-20.74163477405074	11.98222567033488	39.0466952018448	105.1827455805437	0	0
22.63999999999961	-8.409865742520067	-0.1049791116493	17.43734771737086	0	0.9399999999999999	0	36.33197962842754	-10.47791944057324	-9.850332184985668	44.94263124022842	0.7843968896516484	0	0	0	36.33197962842754	-10.47791944057324	-9.850332184985668	44.94263124022842	0.7843968896516484	0	0	0	-6.231280357136429	-0.4628618738427751	-3.043200536127979	37.31839375131467	3.729225470863965	4.706762579412398	45.38209844274105	137.8518498996313	0	0	69.55058473372	-21.92911018036977	11.53876480549066	39.57639590476095	105.1518561630977	0	0
22.65999999999961	-8.410676768588525	-0.1062471082367305	17.63665597075029	0	0.9399999999999999	0	36.33589108024269	-10.47717452555158	-9.850481705457909	44.94569624358491	0.784450384051804	0	0	0	36.33589108024269	-10.47717452555158	-9.850481705457909	44.94569624358491	0.784450384051804	0	0	0	-6.233648526071424	-0.4418101787057244	-3.231831021967699	37.32409658273734	3.709228581146393	4.786490460638496	45.39065925475014	137.8143691643539	0	0	69.054032555641	-23.5321195417854	10.65575893179146	40.00874177616807	105.2542786198144	0	0
22.67999999999961	-8.356851233752115	-0.120808129071705	17.99972258718613	0	0.9399999999999999	0	36.34022795691918	-10.47634891914713	-9.850647476036443	44.94909277357942	0.7845096646833509	0	0	0	36.34022795691918	-10.47634891914713	-9.850647476036443	44.94909277357942	0.7845096646833509	0	0	0	-6.188125822057382	-0.4669557392841321	-3.270477034586765	37.25427394241237	3.553854239672553	4.578841787362085	45.41792658059147	137.7570428372353	0	0	68.47596737876866	-24.83828765418358	9.896800425639585	40.41640001049391	105.4428676875814	0	0
22.6999999999996	-8.32884802169777	-0.1321984838669822	18.28847239335846	0	0.9399999999999999	0	36.34411623845234	-10.47560998677135	-9.850795961788151	44.95213995584843	0.7845628480468535	0	0	0	36.34411623845234	-10.47560998677135	-9.850795961788151	44.95213995584843	0.7845628480468535	0	0	0	-6.166719245202263	-0.4787916448645567	-3.328444844914253	37.19585881259118	3.386198048410245	4.513823882332566	45.4889006452017	137.6643243174976	0	0	67.85319407395254	-26.01145516771449	9.174339470926228	41.49535127535748	105.2742189269393	0	0
22.7199999999996	-8.326286410029343	-0.1294073031894215	18.48535433243812	0	0.9399999999999999	0	36.34862656624817	-10.47475368414481	-9.850968124208222	44.9556745881241	0.7846245390179113	0	0	0	36.34862656624817	-10.47475368414481	-9.850968124208222	44.9556745881241	0.7846245390179113	0	0	0	-6.164547583545026	-0.4549094281129146	-3.518191278643951	37.18770833275259	3.380018552181693	4.526225524044928	45.49741989259488	137.7057869976356	0	0	67.26690811478828	-27.50699753001995	8.100640814874986	41.80364221196226	105.4456328064941	0	0
22.7399999999996	-8.266619540772282	-0.1596870895151329	18.93163080311482	0	0.9399999999999999	0	36.35246019501577	-10.47402675299115	-9.851114365677882	44.95867966397213	0.7846769874857316	0	0	0	36.35246019501577	-10.47402675299115	-9.851114365677882	44.95867966397213	0.7846769874857316	0	0	0	-6.11813203353398	-0.5096896112625308	-3.451330976291747	37.06939819067453	3.073180386633901	4.158885990494736	45.60291009675174	137.5894272008566	0	0	66.6878170067029	-28.44167104260024	7.515794044573919	42.88744547845028	105.2715851813715	0	0
22.7599999999996	-8.240180472200281	-0.1796199552344019	19.24590169348523	0	0.9399999999999999	0	36.39209343787943	-10.46867636821487	-9.852337156444305	44.99874774188788	0.7853763073703069	0	0	0	36.39209343787943	-10.46867636821487	-9.852337156444305	44.99874774188788	0.7853763073703069	0	0	0	-6.104867570655343	-0.5179468884425593	-3.504060636583466	37.00680726643118	2.893677879829828	4.004289372953339	45.70721616466873	137.5479498972168	0	0	66.36539906263815	-30.03207094213942	6.396410595447706	41.21564532075756	105.7741403555099	0	0
22.7799999999996	-8.202080688351021	-0.1931145843401244	19.4242943682806	0	0.9399999999999999	0	36.39347755320458	-10.46841974399451	-9.852389234481009	44.99984894357396	0.7853955269654576	6.15127677016498e-36	0	0	36.39347755320458	-10.46841974399451	-9.852389234481009	44.99984894357396	0.7853955269654576	6.15127677016498e-36	0	0	-6.073184173980421	-0.5515271154787486	-3.425592379450872	36.89547890539354	2.733017852071085	3.847159976971933	45.77411287252693	137.5244986164188	0	0	66.39297668325999	-29.82468328731566	6.590415615437717	41.248149960375	105.7899184063223	0	0
22.7999999999996	-8.180199255548484	-0.2337591032582209	19.75059410611048	0	0.9399999999999999	0	36.39680788399883	-10.46779365227222	-9.852515697348911	45.00246260084397	0.7854411438903379	0	0	0	36.39680788399883	-10.46779365227222	-9.852515697348911	45.00246260084397	0.7854411438903379	0	0	0	-6.067342324422937	-0.5911226830485009	-3.473559012553586	36.82429824310531	2.591006433868529	3.643445829376572	45.94842574219176	137.4569436992596	0	0	65.95432482968209	-31.04489644467579	5.883467731865827	41.23436230649403	105.7202166605624	0	0
22.8199999999996	-8.149159380303498	-0.263311039423191	20.09669841896012	0	0.9399999999999999	0	36.3995357661379	-10.46728179321666	-9.852619168529102	45.00460588688505	0.7854785512885667	0	0	0	36.3995357661379	-10.46728179321666	-9.852619168529102	45.00460588688505	0.7854785512885667	0	0	0	-6.049469050918985	-0.6199524062195123	-3.552874806798283	36.71398785996866	2.433979099993811	3.454112069826254	46.07104446517778	137.432758626189	0	0	65.5376319086222	-32.34548366832946	5.100747617400326	40.26473442207173	106.1184257049901	0	0
22.8399999999996	-8.132993299979422	-0.2846903733908419	20.48729539312968	0	0.9399999999999999	0	36.46969413968385	-10.45822738229771	-9.854729889438225	45.07680823524799	0.786738719995172	0	0	0	36.46969413968385	-10.45822738229771	-9.854729889438225	45.07680823524799	0.786738719995172	0	0	0	-6.051610910759352	-0.5940954772360828	-3.799529827710801	36.62784132016757	2.306683482022413	3.385019508255399	46.22308293561436	137.3990872707848	0	0	64.39993099592567	-34.29517650260339	3.780833933041522	41.88336386114072	105.7283017835034	0	0
22.8599999999996	-8.071113351283191	-0.3109829102591558	20.76705241073421	0	0.9399999999999999	0	36.47154700410363	-10.45788769328193	-9.85479920644018	45.07828113479553	0.7867644269418278	0	0	0	36.47154700410363	-10.45788769328193	-9.85479920644018	45.07828113479553	0.7867644269418278	0	0	0	-6.002215614905952	-0.6528704838622734	-3.680954901894416	36.49064833833142	2.110206699293707	3.054135607883637	46.26856962078728	137.365932739444	0	0	64.44970065270023	-33.99180596521332	4.10201331584635	41.92997676258983	105.7538899837381	0	0
22.8799999999996	-8.057235008630199	-0.3409546289264592	21.05352732706899	0	0.9399999999999999	0	36.47640710417301	-10.45698562437319	-9.854982530168588	45.08209675369715	0.7868310220546624	0	0	0	36.47640710417301	-10.45698562437319	-9.854982530168588	45.08209675369715	0.7868310220546624	0	0	0	-6.001875127104966	-0.6663033325557323	-3.842574987131133	36.44184716814812	2.015007485774748	2.989611583084983	46.38231800867966	137.3696542819392	0	0	63.59489357859933	-35.67925310460489	3.101574301583985	43.24625295891442	105.2716274196539	0	0
22.8999999999996	-7.998667762367804	-0.3767965052245199	21.48330687223974	0	0.9399999999999999	0	36.48106047059556	-10.45612339548407	-9.855157900028479	45.08575189244754	0.7868948162604739	0	0	0	36.48106047059556	-10.45612339548407	-9.855157900028479	45.08575189244754	0.7868948162604739	0	0	0	-5.961784662161893	-0.7143841838888448	-3.882468946938099	36.30853992525272	1.826229135179438	2.649129356849601	46.47136082641943	137.3636590138695	0	0	63.4183440410309	-36.46316371390404	2.456188260700024	40.86754972540243	106.6424550868481	0	0
